<svg xmlns="http://www.w3.org/2000/svg" viewBox="0 0 210 193" fill="#ffffff" role="img" aria-label="Sameer Kapil">
  <path d="M96.7555 192.397L0.00012207 95.6053C0.0332784 72.3426 0.0332784 72.3426 10.0247 80.5163L105.627 176.05H176.606C185.477 176.05 192.461 166.618 183.591 157.188L71.0457 45.2714C60.9858 35.2115 60.9858 35.2115 84.2161 35.21L206.157 157.188C215.656 169.762 205.035 192.396 184.151 192.397H96.7555Z"/>
  <path d="M112.908 0.000457764L209.663 96.7923C209.63 120.055 209.63 120.055 199.638 111.881L104.037 16.3478L33.0571 16.3478C24.1862 16.3478 17.2016 25.7791 26.0725 35.21L138.617 147.126C148.677 157.186 148.677 157.186 125.447 157.188L3.5062 35.21C-5.99339 22.6352 4.62813 0.00128174 25.5122 0.000457764L112.908 0.000457764Z"/>
</svg>
